<svg width="130" height="30" viewBox="0 0 130 30" fill="none" xmlns="http://www.w3.org/2000/svg">
<g clip-path="url(#clip0_367_147)">
<path fill-rule="evenodd" clip-rule="evenodd" d="M116.405 21.997C120.683 22.0146 124.464 19.8568 126.753 16.581C127.68 15.255 128.362 13.7422 128.733 12.1098C128.754 12.4094 128.765 12.7119 128.765 13.017C128.765 19.9763 123.167 25.6179 116.262 25.6179C108.76 25.6179 103.484 20.3978 103.484 13.9584C103.484 8.94471 106.682 4.67012 111.17 3.02312C112.261 2.64812 113.376 2.44376 114.537 2.44376C119.935 2.44376 124.597 6.85332 124.597 12.2928C124.597 13.2273 124.468 14.1314 123.939 14.988C124.138 14.4596 124.166 14.0675 124.166 13.6687C124.166 9.14919 120.387 5.63021 115.903 5.63021C111.418 5.63021 107.783 9.29403 107.783 13.8136C107.783 17.641 110.39 20.8548 113.912 21.7493C114.63 21.894 115.364 21.9935 116.405 21.997Z" stroke="white" stroke-width="0.596104" stroke-linejoin="bevel"/>
<path fill-rule="evenodd" clip-rule="evenodd" d="M115.843 3.958C111.565 3.94036 107.784 6.09814 105.495 9.37392C104.569 10.7 103.886 12.2128 103.515 13.8451C103.494 13.5455 103.483 13.243 103.483 12.938C103.483 5.97867 109.081 0.337036 115.986 0.337036C123.488 0.337036 128.764 5.55717 128.764 11.9965C128.764 17.0103 125.566 21.2848 121.078 22.9318C119.987 23.3068 118.872 23.5112 117.711 23.5112C112.314 23.5112 107.651 19.1016 107.651 13.6622C107.651 12.7277 107.78 11.8236 108.309 10.967C108.11 11.4953 108.082 11.8874 108.082 12.2862C108.082 16.8058 111.861 20.3247 116.345 20.3247C120.83 20.3247 124.465 16.6609 124.465 12.1414C124.465 8.31391 121.858 5.10017 118.336 4.20566C117.618 4.06098 116.884 3.96143 115.843 3.958Z" fill="white" stroke="white" stroke-width="0.596104" stroke-linejoin="bevel"/>
<path d="M0.0859375 23.483V2.46582H7.24953C9.18351 2.46582 10.7129 2.99372 11.8378 4.04951C12.9627 5.1053 13.5251 6.51138 13.5251 8.26774C13.5251 9.80703 13.0663 11.07 12.1486 12.0568C11.231 13.0435 9.95315 13.6552 8.31519 13.8921L16.426 23.483H12.9627L4.8814 13.9217H2.83889V23.483H0.0859375ZM2.83889 11.4647H6.92392C8.14745 11.4647 9.0947 11.1934 9.76567 10.6507C10.4366 10.108 10.7721 9.31367 10.7721 8.26774C10.7721 7.22182 10.4366 6.41764 9.76567 5.85521C9.0947 5.29278 8.14745 5.01156 6.92392 5.01156H2.83889V11.4647Z" fill="white"/>
<path d="M21.074 4.21242C20.7385 4.54791 20.3142 4.71565 19.8011 4.71565C19.288 4.71565 18.8539 4.54297 18.4987 4.19762C18.1434 3.85227 17.9658 3.42304 17.9658 2.90995C17.9658 2.41659 18.1434 1.9923 18.4987 1.63708C18.8539 1.28186 19.288 1.10425 19.8011 1.10425C20.3142 1.10425 20.7385 1.28186 21.074 1.63708C21.4095 1.9923 21.5772 2.41659 21.5772 2.90995C21.5772 3.42304 21.4095 3.8572 21.074 4.21242ZM18.4987 23.4831V8.68227H21.0444V23.4831H18.4987Z" fill="white"/>
<path d="M25.8691 23.4831V8.68225H28.4149V10.9616C29.4213 9.24468 30.9902 8.38623 33.1215 8.38623C34.799 8.38623 36.1508 8.92893 37.177 10.0143C38.2032 11.0997 38.7163 12.5502 38.7163 14.3658V23.4831H36.2001V14.7506C36.2001 13.5073 35.8844 12.5255 35.2529 11.8052C34.6214 11.0849 33.7728 10.7248 32.7071 10.7248C31.4836 10.7248 30.4623 11.2083 29.6433 12.1752C28.8244 13.1422 28.4149 14.4644 28.4149 16.1419V23.4831H25.8691Z" fill="white"/>
<path d="M49.8162 29.9658C47.8625 29.9658 46.2394 29.4873 44.9468 28.5301C43.6542 27.573 42.8895 26.3446 42.6526 24.8447H45.1392C45.7904 26.759 47.3692 27.7161 49.8754 27.7161C51.2766 27.7161 52.4064 27.2671 53.2648 26.3692C54.1233 25.4713 54.5525 24.2132 54.5525 22.595V20.8485C54.0197 21.6379 53.2994 22.2694 52.3916 22.743C51.4838 23.2167 50.4872 23.4535 49.4018 23.4535C47.3297 23.4535 45.6029 22.7282 44.2215 21.2777C42.8401 19.8273 42.1494 18.0364 42.1494 15.905C42.1494 13.7935 42.8451 12.0124 44.2363 10.562C45.6276 9.11147 47.3494 8.38623 49.4018 8.38623C50.4872 8.38623 51.4838 8.62304 52.3916 9.09667C53.2994 9.5703 54.0197 10.1919 54.5525 10.9616V8.68225H57.0982V22.5654C57.0982 24.9335 56.4125 26.759 55.0409 28.0417C53.6694 29.3245 51.9278 29.9658 49.8162 29.9658ZM46.1456 19.6349C47.0732 20.6018 48.277 21.0853 49.757 21.0853C51.2371 21.0853 52.4409 20.5969 53.3684 19.6201C54.296 18.6432 54.7597 17.4049 54.7597 15.905C54.7597 14.4052 54.291 13.1669 53.3536 12.19C52.4162 11.2132 51.2174 10.7248 49.757 10.7248C48.2967 10.7248 47.0978 11.2132 46.1604 12.19C45.2231 13.1669 44.7544 14.4052 44.7544 15.905C44.7544 17.4049 45.2181 18.6481 46.1456 19.6349Z" fill="white"/>
<path d="M62.2783 23.483V2.46582H68.3171C71.5338 2.46582 74.2028 3.46241 76.3243 5.45559C78.4457 7.44876 79.5065 9.95504 79.5065 12.9744C79.5065 15.9938 78.4457 18.5 76.3243 20.4932C74.2028 22.4864 71.5338 23.483 68.3171 23.483H62.2783ZM65.0313 20.9076H68.3171C70.8233 20.9076 72.851 20.1627 74.4002 18.6727C75.9493 17.1828 76.7239 15.2833 76.7239 12.9744C76.7239 10.6655 75.9493 8.76604 74.4002 7.27609C72.851 5.78614 70.8233 5.04116 68.3171 5.04116H65.0313V20.9076Z" fill="white"/>
<path d="M81.0166 23.483L90.3115 2.46582H92.5908L101.915 23.483H99.044L96.3207 17.3554H86.5225L83.8584 23.483H81.0166ZM91.4068 6.19563L87.6178 14.8689H95.2254L91.4068 6.19563Z" fill="white"/>
</g>
<defs>
<clipPath id="clip0_367_147">
<rect width="129.101" height="30" fill="white"/>
</clipPath>
</defs>
</svg>
