<svg width="97" height="24" viewBox="0 0 97 24" fill="none" xmlns="http://www.w3.org/2000/svg">
<path fill-rule="evenodd" clip-rule="evenodd" d="M10.0227 1.4007L8.79568 0.0648697C10.6428 -0.179315 15.5167 0.133816 20.2349 3.33981C20.2962 3.78261 20.283 4.224 20.283 4.224L20.4064 4.29252C20.6318 4.60186 20.8906 5.18289 21.045 5.90236C21.199 6.6198 21.242 7.44246 21.0639 8.22586C20.8839 9.01814 20.5419 9.67267 20.2068 10.1515C19.8639 10.6416 19.5498 10.918 19.4503 10.9777L19.4188 10.9966C18.8363 11.1052 18.0317 11.5324 17.7048 12.6077C16.7485 13.2033 15.1325 13.8555 12.9357 13.8555C10.9887 13.8555 9.00676 13.292 7.52091 12.2065C6.04403 11.1277 5.05623 9.53549 5.05623 7.43746C5.05623 5.77323 5.80209 4.47145 6.75491 3.50957C7.71526 2.54009 9.02838 1.75585 9.78017 1.49843L9.96638 1.43467L9.9553 1.42517L10.0227 1.4007ZM18.1433 4.01832C17.7719 4.43372 17.4246 4.63302 17.3254 4.68707C15.1563 4.19171 14.3749 2.98694 14.3749 2.98694C16.4209 2.97339 18.2675 3.49585 19.6185 4.37968C19.6185 4.37968 18.8872 4.12522 18.1433 4.01832Z" fill="#323F4B"/>
<path d="M8.06682 1.62802C3.46582 2.72639 0 6.93748 0 12.0032C0 18.5722 5.55252 24 12.4019 24C17.5165 24 21.7739 20.8728 24 16.6888C21.1041 17.3756 17.6589 16.1962 17.4886 13.5905C17.4939 13.5702 17.4991 13.5497 17.5043 13.5289C16.4236 14.0789 14.8815 14.5605 12.9357 14.5605C10.8647 14.5605 8.7307 13.9634 7.10505 12.7758C5.47045 11.5817 4.35123 9.78867 4.35123 7.43746C4.35123 5.54231 5.20605 4.07139 6.25404 3.01343L6.25442 3.01305C6.7432 2.52427 7.37513 2.05799 7.95603 1.69615C7.99313 1.67304 8.03008 1.65032 8.06682 1.62802Z" fill="#323F4B"/>
<path d="M4.46373 7.43746C4.46373 5.57917 5.30115 4.13524 6.33397 3.0926C6.93156 2.49501 7.75086 1.92788 8.42381 1.54953C8.42381 1.54953 8.42382 1.54953 8.42381 1.54953C7.75086 1.92788 6.93156 2.49501 6.33397 3.0926C5.30115 4.13524 4.46373 5.57917 4.46373 7.43746Z" fill="#323F4B"/>
<path d="M20.3696 11.0813C20.5812 11.1679 20.7105 11.2816 20.7782 11.3534C20.9409 11.5257 21.3475 12.0428 20.8595 12.8616C21.8761 12.6892 23.4639 11.655 23.5839 9.02642C23.6637 7.27903 22.7501 6.00396 21.5449 5.05622C21.6176 5.27566 21.6819 5.51009 21.7343 5.75441C21.9043 6.54657 21.9574 7.47591 21.7514 8.38211C21.5475 9.27943 21.1615 10.0169 20.7845 10.5557C20.6449 10.7552 20.5034 10.9318 20.3696 11.0813Z" fill="#323F4B"/>
<path d="M69.1619 6.15779C70.9191 6.15779 72.0228 6.65458 73.0684 7.54587L71.9357 8.90473C71.1515 8.23261 70.3672 7.82349 69.0892 7.82349C67.2304 7.82349 65.7926 9.45996 65.7926 11.4179L65.7935 11.5396C65.8334 13.5964 67.2028 15.1 69.249 15.1C70.222 15.1 71.0788 14.7931 71.7033 14.3256V12.4261L73.4315 10.848V15.1438C72.4149 16.0059 70.9917 16.7364 69.1909 16.7364C66.0105 16.7364 63.9192 14.4571 63.9192 11.4763L63.92 11.3539C63.9664 8.53084 66.1166 6.15779 69.1619 6.15779ZM80.6631 6.15779C83.7855 6.15779 85.9638 8.53945 85.9638 11.4179L85.9631 11.5393C85.9163 14.3628 83.7228 16.7364 80.6341 16.7364C77.5117 16.7364 75.3333 14.3548 75.3333 11.4763L75.3341 11.3549C75.3809 8.5314 77.5743 6.15779 80.6631 6.15779ZM35.6431 6.26007L40.1161 16.5611L38.2977 16.561L34.7863 8.40794L31.3005 16.561L29.5146 16.5611L33.9876 6.26007H35.6431ZM58.6818 6.26007L63.1547 16.5611L61.3364 16.561L57.8249 8.40794L54.3392 16.561L52.5533 16.5611L57.0262 6.26007H58.6818ZM89.5469 6.33313L94.9928 13.405V6.33313H96.75V16.5611H95.2542L89.6485 9.28463V16.5611H87.8913V6.33313H89.5469ZM80.6341 7.82349C78.6154 7.82349 77.2067 9.43074 77.2067 11.4179L77.2077 11.5345C77.2487 13.482 78.6599 15.0707 80.6631 15.0707C82.6817 15.0707 84.0904 13.4635 84.0904 11.4763L84.0895 11.3597C84.0484 9.41218 82.6373 7.82349 80.6341 7.82349Z" fill="#323F4B"/>
<path d="M46.8105 6.15779C48.091 6.15779 49.095 6.54395 49.7497 7.19745C50.2881 7.77668 50.5937 8.53415 50.5937 9.44013L50.5933 9.52529C50.5723 11.1632 49.6177 12.1626 48.2697 12.5905L48.1783 12.6185L50.9284 16.5544H48.804L46.3012 12.9304L44.9875 12.9301L45.9094 11.3112L46.6796 11.3115C47.9309 11.3115 48.7376 10.6732 48.7736 9.64609L48.7749 9.5738L48.7745 9.50448C48.7566 8.40143 47.9879 7.82124 46.665 7.82124H44.0604L44.0602 11.0351L44.0588 11.0349V13.3534L44.0602 13.3526L44.0604 16.5544H42.2707V6.15779H46.8105Z" fill="#323F4B"/>
</svg>
